<svg width="100" height="100" viewBox="0 0 100 100" fill="none" xmlns="http://www.w3.org/2000/svg">
<mask id="mask0_814_99" style="mask-type:luminance" maskUnits="userSpaceOnUse" x="0" y="0" width="100" height="100">
<path d="M0 7.62939e-06H100V100H0V7.62939e-06Z" fill="white"/>
</mask>
<g mask="url(#mask0_814_99)">
<path fill-rule="evenodd" clip-rule="evenodd" d="M38.9378 28.3276C38.2159 28.325 36.8906 28.2554 35.5298 27.8598C33.7743 27.3495 32.2197 26.3833 31.5652 24.5821C29.5599 19.0628 32.0355 14.1713 33.2281 12.2844C35.3532 12.9655 40.3903 15.1268 42.3958 20.6461C43.042 22.4247 42.4424 24.1729 41.3649 25.7245C40.5305 26.9261 39.5114 27.8518 38.9378 28.3276ZM32.508 12.0764C32.5083 12.0765 32.5086 12.0766 32.5089 12.0767L32.508 12.0764ZM38.5848 28.6357L39.4624 29.7829L38.584 28.6363C38.5843 28.6361 38.5845 28.6359 38.5848 28.6357ZM39.2505 31.2549C38.4551 31.2705 36.6363 31.2324 34.712 30.673C32.5141 30.0341 29.9185 28.6286 28.8116 25.5827L28.8116 25.5826C25.9823 17.7952 30.3718 11.1908 31.2731 9.94558L31.2731 9.94554C31.7175 9.33149 32.4902 9.04982 33.227 9.23635C34.7194 9.61326 42.3204 11.8602 45.1494 19.6456L45.1494 19.6456C46.2643 22.7141 45.0957 25.4884 43.7713 27.3956C42.606 29.0736 41.188 30.2845 40.5667 30.7791C40.5305 30.8186 40.4971 30.8509 40.4693 30.8761C40.3729 30.9635 40.2846 31.0202 40.2339 31.0506C40.1294 31.1133 40.0349 31.1526 39.9688 31.1766C39.9026 31.2006 39.8051 31.231 39.6851 31.2501C39.6268 31.2593 39.5231 31.2725 39.3938 31.2675C39.3549 31.2659 39.3063 31.2625 39.2505 31.2549Z" fill="black"/>
<path fill-rule="evenodd" clip-rule="evenodd" d="M42.2951 37.2421C43.0555 36.9659 43.448 36.1255 43.1718 35.3652L36.4354 16.8222C36.1592 16.0618 35.3188 15.6693 34.5585 15.9456C33.7981 16.2218 33.4056 17.0621 33.6818 17.8225L40.4181 36.3655C40.6944 37.1259 41.5347 37.5184 42.2951 37.2421Z" fill="black"/>
<path fill-rule="evenodd" clip-rule="evenodd" d="M12.2266 61.1055C12.2266 61.9145 12.8824 62.5703 13.6914 62.5703H21.711C22.52 62.5703 23.1758 61.9145 23.1758 61.1055C23.1758 60.2965 22.52 59.6406 21.711 59.6406H13.6914C12.8824 59.6406 12.2266 60.2965 12.2266 61.1055Z" fill="black"/>
<path fill-rule="evenodd" clip-rule="evenodd" d="M12.2265 89.3555C12.2265 90.1645 12.8823 90.8203 13.6914 90.8203H54.9414C55.7504 90.8203 56.4062 90.1645 56.4062 89.3555C56.4062 88.5465 55.7504 87.8906 54.9414 87.8906H13.6914C12.8823 87.8906 12.2265 88.5465 12.2265 89.3555Z" fill="black"/>
<path fill-rule="evenodd" clip-rule="evenodd" d="M7.62939e-05 75.2304C7.62939e-05 83.6347 5.93794 90.8198 13.6905 90.8198C21.4429 90.8198 27.3809 83.6347 27.3809 75.2304C27.3809 66.8263 21.4429 59.6409 13.6905 59.6409C11.5182 59.6409 9.46681 60.2169 7.65072 61.2336C6.94481 61.6288 6.69292 62.5215 7.08811 63.2274C7.4833 63.9333 8.37593 64.1852 9.08185 63.79C10.4845 63.0047 12.046 62.5706 13.6905 62.5706C19.442 62.5706 24.4512 68.0329 24.4512 75.2304C24.4512 82.428 19.4421 87.8901 13.6905 87.8901C7.93877 87.8901 2.92976 82.428 2.92976 75.2304C2.92976 72.3481 3.74879 69.7076 5.11042 67.5951C5.54872 66.9151 5.35278 66.0085 4.67278 65.5702C3.99279 65.1319 3.08623 65.3279 2.64794 66.0079C0.976359 68.6012 7.62939e-05 71.7943 7.62939e-05 75.2304Z" fill="black"/>
<path fill-rule="evenodd" clip-rule="evenodd" d="M12.2257 83.0615C12.2257 83.8705 12.8815 84.5264 13.6906 84.5264C18.4346 84.5264 21.9335 80.1585 21.9335 75.2303C21.9335 70.302 18.4346 65.9342 13.6906 65.9342C8.94657 65.9342 5.44739 70.302 5.44739 75.2303C5.44739 76.0393 6.10322 76.6951 6.91223 76.6951C7.72124 76.6951 8.37707 76.0393 8.37707 75.2303C8.37707 71.5086 10.9474 68.8639 13.6906 68.8639C16.4336 68.8639 19.0038 71.5085 19.0038 75.2303C19.0038 78.952 16.4336 81.5967 13.6906 81.5967C12.8815 81.5967 12.2257 82.2525 12.2257 83.0615Z" fill="black"/>
<path fill-rule="evenodd" clip-rule="evenodd" d="M76.9664 62.0903C77.5103 62.6892 78.4367 62.7338 79.0356 62.1899C82.2074 59.3094 84.1953 54.8902 84.1953 49.9883C84.1953 47.6235 83.7327 45.3745 82.8999 43.3572C82.5912 42.6094 81.7347 42.2535 80.9869 42.5622C80.2391 42.8709 79.8832 43.7274 80.1919 44.4752C80.8779 46.1368 81.2656 48.0058 81.2656 49.9883C81.2656 54.1098 79.5934 57.7258 77.066 60.0211C76.4671 60.565 76.4225 61.4914 76.9664 62.0903Z" fill="black"/>
<path fill-rule="evenodd" clip-rule="evenodd" d="M79.0843 39.8015C79.6243 39.1991 79.5737 38.273 78.9713 37.733C76.6618 35.6626 73.7238 34.4003 70.5059 34.4003H29.2559C28.4468 34.4003 27.791 35.0561 27.791 35.8651C27.791 36.6741 28.4468 37.33 29.2559 37.33H70.5059C72.9305 37.33 75.1878 38.2758 77.0158 39.9145C77.6182 40.4545 78.5443 40.4039 79.0843 39.8015Z" fill="black"/>
<path fill-rule="evenodd" clip-rule="evenodd" d="M20.9717 49.9897C20.9717 54.9442 24.4894 59.3333 29.2561 59.3333C30.0651 59.3333 30.7209 58.6774 30.7209 57.8684C30.7209 57.0594 30.0651 56.4036 29.2561 56.4036C26.4902 56.4036 23.9014 53.7375 23.9014 49.9897C23.9014 46.2416 26.4903 43.5756 29.2561 43.5756C32.022 43.5756 34.6107 46.2416 34.6107 49.9897C34.6107 50.7987 35.2666 51.4545 36.0756 51.4545C36.8846 51.4545 37.5404 50.7987 37.5404 49.9897C37.5404 45.035 34.0229 40.6459 29.2561 40.6459C24.4894 40.6459 20.9717 45.035 20.9717 49.9897Z" fill="black"/>
<path fill-rule="evenodd" clip-rule="evenodd" d="M79.7959 89.3555C79.7959 90.1645 80.4518 90.8203 81.2608 90.8203H86.3106C94.0631 90.8203 100 83.6344 100 75.2305C100 66.8266 94.0631 59.6406 86.3106 59.6406H45.0606C44.2516 59.6406 43.5957 60.2965 43.5957 61.1055C43.5957 61.9145 44.2516 62.5703 45.0606 62.5703H86.3106C92.0619 62.5703 97.0703 68.0328 97.0703 75.2305C97.0703 82.4281 92.0619 87.8906 86.3106 87.8906H81.2608C80.4518 87.8906 79.7959 88.5465 79.7959 89.3555Z" fill="black"/>
<path fill-rule="evenodd" clip-rule="evenodd" d="M43.5957 89.3555C43.5957 90.1645 44.2515 90.8203 45.0605 90.8203H74.9744C75.7834 90.8203 76.4393 90.1645 76.4393 89.3555C76.4393 88.5465 75.7834 87.8906 74.9744 87.8906H45.0605C44.2515 87.8906 43.5957 88.5465 43.5957 89.3555Z" fill="black"/>
<path fill-rule="evenodd" clip-rule="evenodd" d="M31.3698 75.2304C31.3698 83.6345 37.3076 90.8198 45.0602 90.8198C52.8126 90.8198 58.7506 83.6345 58.7506 75.2304C58.7506 66.8263 52.8126 59.6409 45.0602 59.6409C37.3076 59.6409 31.3698 66.8263 31.3698 75.2304ZM45.0602 87.8901C39.3085 87.8901 34.2995 82.4278 34.2995 75.2304C34.2995 68.0329 39.3085 62.5706 45.0602 62.5706C50.8117 62.5706 55.8209 68.0329 55.8209 75.2304C55.8209 82.4278 50.8117 87.8901 45.0602 87.8901Z" fill="black"/>
<path fill-rule="evenodd" clip-rule="evenodd" d="M36.473 75.2303C36.473 80.3781 40.1261 84.9238 45.0601 84.9238C49.9941 84.9238 53.6474 80.3781 53.6474 75.2303C53.6474 70.0822 49.9941 65.5367 45.0601 65.5367C44.2511 65.5367 43.5953 66.1926 43.5953 67.0016C43.5953 67.8106 44.2511 68.4664 45.0601 68.4664C47.9934 68.4664 50.7178 71.2889 50.7178 75.2303C50.7178 79.1715 47.9933 81.9941 45.0601 81.9941C42.127 81.9941 39.4027 79.1715 39.4027 75.2303C39.4027 74.4213 38.7469 73.7654 37.9379 73.7654C37.1289 73.7654 36.473 74.4213 36.473 75.2303Z" fill="black"/>
<path fill-rule="evenodd" clip-rule="evenodd" d="M39.6317 46.4587C39.6317 47.2678 40.2876 47.9236 41.0966 47.9236H57.4304C58.2394 47.9236 58.8952 47.2678 58.8952 46.4587C58.8952 45.6497 58.2394 44.9939 57.4304 44.9939H41.0966C40.2876 44.9939 39.6317 45.6497 39.6317 46.4587Z" fill="black"/>
<path fill-rule="evenodd" clip-rule="evenodd" d="M55.9656 55.3757C55.9656 56.1847 56.6214 56.8406 57.4304 56.8406H81.8099C82.6189 56.8406 83.2747 56.1847 83.2747 55.3757C83.2747 54.5667 82.6189 53.9109 81.8099 53.9109H57.4304C56.6214 53.9109 55.9656 54.5667 55.9656 55.3757Z" fill="black"/>
<path fill-rule="evenodd" clip-rule="evenodd" d="M64.7887 46.4587C64.7887 47.2678 65.4446 47.9236 66.2536 47.9236H71.7979C72.6069 47.9236 73.2627 47.2678 73.2627 46.4587C73.2627 45.6497 72.6069 44.9939 71.7979 44.9939H66.2536C65.4446 44.9939 64.7887 45.6497 64.7887 46.4587Z" fill="black"/>
<path fill-rule="evenodd" clip-rule="evenodd" d="M55.0549 70.3003C55.0549 71.1093 55.7108 71.7651 56.5198 71.7651H84.9835C85.7925 71.7651 86.4483 71.1093 86.4483 70.3003C86.4483 69.4913 85.7925 68.8354 84.9835 68.8354H56.5198C55.7108 68.8354 55.0549 69.4913 55.0549 70.3003Z" fill="black"/>
<path fill-rule="evenodd" clip-rule="evenodd" d="M76.9253 81.168C76.9253 81.977 77.5811 82.6328 78.3901 82.6328H97.3661C98.1751 82.6328 98.831 81.977 98.831 81.168C98.831 80.359 98.1751 79.7031 97.3661 79.7031H78.3901C77.5811 79.7031 76.9253 80.359 76.9253 81.168Z" fill="black"/>
<path fill-rule="evenodd" clip-rule="evenodd" d="M62.1865 81.168C62.1865 81.977 62.8423 82.6328 63.6513 82.6328H68.2271C69.0361 82.6328 69.6919 81.977 69.6919 81.168C69.6919 80.359 69.0361 79.7031 68.2271 79.7031H63.6513C62.8423 79.7031 62.1865 80.359 62.1865 81.168Z" fill="black"/>
<path fill-rule="evenodd" clip-rule="evenodd" d="M15.5657 49.9896C15.5657 58.3937 21.5035 65.5791 29.2561 65.5791C37.0087 65.5791 42.9465 58.3937 42.9465 49.9896C42.9465 41.5856 37.0087 34.4002 29.2561 34.4002C21.5035 34.4002 15.5657 41.5856 15.5657 49.9896ZM29.2561 62.6494C23.5044 62.6494 18.4953 57.1871 18.4953 49.9896C18.4953 42.7922 23.5044 37.3299 29.2561 37.3299C35.0078 37.3299 40.0168 42.7922 40.0168 49.9896C40.0168 57.1871 35.0078 62.6494 29.2561 62.6494Z" fill="black"/>
<path fill-rule="evenodd" clip-rule="evenodd" d="M27.7915 64.1147C27.7915 64.9238 28.4473 65.5796 29.2563 65.5796H37.5159C38.3249 65.5796 38.9808 64.9238 38.9808 64.1147C38.9808 63.3057 38.3249 62.6499 37.5159 62.6499H29.2563C28.4473 62.6499 27.7915 63.3057 27.7915 64.1147Z" fill="black"/>
</g>
</svg>
