<svg width="23" height="23" viewBox="0 0 23 23" fill="none" xmlns="http://www.w3.org/2000/svg">
<path d="M5.25439 1.73032H17.2477C15.5126 0.635087 13.4577 0.000621822 11.2539 0H11.249C9.04523 0.000414548 6.9899 0.635087 5.2546 1.73032H5.25439Z" fill="#BE272D"/>
<path d="M17.2475 20.7697H5.25439C6.99052 21.8653 9.04668 22.5 11.2512 22.5C13.4558 22.5 15.5118 21.8653 17.2475 20.7697Z" fill="#BE272D"/>
<path d="M3.13319 19.0383H19.3692C19.8776 18.5085 20.3349 17.9292 20.7324 17.308H1.76953C2.16729 17.9292 2.62474 18.5085 3.13319 19.0383Z" fill="#BE272D"/>
<path d="M0.863056 15.5766H21.6381C21.8699 15.0209 22.0581 14.4428 22.199 13.8463H0.301758C0.442704 14.4428 0.631116 15.0209 0.862848 15.5766H0.863056Z" fill="#BE272D"/>
<path d="M0.0327493 12.1152H22.4679C22.4896 11.8298 22.5006 11.5412 22.5006 11.2502C22.5006 10.959 22.4896 10.6705 22.4679 10.3851H0.0327493C0.0109855 10.6707 0 10.9592 0 11.2502C0 11.5412 0.0109855 11.8298 0.0327493 12.1152Z" fill="#BE272D"/>
<path d="M0.301758 8.65348H22.1988C22.0579 8.05694 21.8696 7.47886 21.6379 6.92316H0.862848C0.631116 7.47865 0.442704 8.05694 0.301758 8.65348Z" fill="#BE272D"/>
<path d="M1.76925 5.19182H20.7321C20.3346 4.57062 19.8773 3.99149 19.3689 3.4617H3.1327C2.62426 3.99149 2.1668 4.57082 1.76904 5.19182H1.76925Z" fill="#BE272D"/>
<path d="M5.25447 20.7697H17.2475C18.0238 20.2797 18.7362 19.6974 19.3688 19.0383H3.13281C3.76562 19.6974 4.47802 20.2797 5.25447 20.7697Z" fill="#FEFEFE"/>
<path d="M1.7692 17.308H20.7321C21.082 16.7614 21.3856 16.1823 21.6381 15.5766H0.862793C1.11546 16.1823 1.41912 16.7614 1.7692 17.308Z" fill="#FEFEFE"/>
<path d="M0.301756 13.8463H22.199C22.3317 13.2842 22.4227 12.7061 22.4678 12.1149H0.0327148C0.0779006 12.7061 0.168894 13.2842 0.301756 13.8463Z" fill="#FEFEFE"/>
<path d="M0.0327148 10.3848H22.4678C22.4229 9.79369 22.3317 9.2156 22.199 8.65347H0.301964C0.169101 9.2156 0.0779006 9.79369 0.0329221 10.3848H0.0327148Z" fill="#FEFEFE"/>
<path d="M0.862793 6.92313H21.6379C21.3854 6.31748 21.0817 5.73835 20.7319 5.19177H1.7692C1.41912 5.73835 1.11546 6.31748 0.862793 6.92313Z" fill="#FEFEFE"/>
<path d="M3.13281 3.46146H19.3686C18.736 2.80212 18.0236 2.2201 17.2473 1.7301H5.25447C4.47802 2.2201 3.76562 2.80212 3.13281 3.46146Z" fill="#FEFEFE"/>
<path d="M0.0327493 12.1152H11.2521V0H11.2515C5.038 0 0 5.03655 0 11.25C0 11.541 0.0109855 11.8295 0.0327493 12.115V12.1152Z" fill="#2D4270"/>
<path d="M6.8567 0.890858L6.82229 0.997811H6.61295C6.55242 1.02517 6.49252 1.05357 6.43262 1.08196L6.72404 1.2938L6.56942 1.77177L6.97671 1.47599L7.384 1.77177L7.22689 1.2938L7.63418 0.997811H7.13113L7.06853 0.803802C6.99765 0.832199 6.92676 0.86101 6.85649 0.890858H6.8567Z" fill="#FEFEFE"/>
<path d="M9.41819 1.77176L9.82569 1.47598L10.233 1.77176L10.0784 1.29379L10.4857 0.997802H9.9826L9.82569 0.518585L9.67107 0.997802H9.16553L9.57531 1.29379L9.41819 1.77176Z" fill="#FEFEFE"/>
<path d="M4.12745 2.94183L3.97034 3.42105H3.46729L3.87458 3.71704L3.71995 4.19501L4.12745 3.89902L4.53475 4.19501L4.37763 3.71704L4.78513 3.42105H4.28208L4.12745 2.94183Z" fill="#FEFEFE"/>
<path d="M6.97657 2.94183L6.82195 3.42105H6.31641L6.72391 3.71704L6.56928 4.19501L6.97657 3.89902L7.38407 4.19501L7.22696 3.71704L7.63425 3.42105H7.1312L6.97657 2.94183Z" fill="#FEFEFE"/>
<path d="M9.82569 2.94183L9.67107 3.42105H9.16553L9.57531 3.71704L9.41819 4.19501L9.82569 3.89902L10.233 4.19501L10.0784 3.71704L10.4857 3.42105H9.9826L9.82569 2.94183Z" fill="#FEFEFE"/>
<path d="M1.05978 6.47981L1.27638 6.32249L1.68367 6.61847L1.52905 6.13926L1.93385 5.84327H1.43329L1.41463 5.78668C1.28861 6.01303 1.17025 6.24414 1.05957 6.47981H1.05978Z" fill="#FEFEFE"/>
<path d="M4.12745 5.36508L3.97034 5.84306H3.46729L3.87458 6.13904L3.71995 6.61847L4.12745 6.32248L4.53475 6.61847L4.37763 6.13904L4.78513 5.84306H4.28208L4.12745 5.36508Z" fill="#FEFEFE"/>
<path d="M6.97657 5.36508L6.82195 5.84306H6.31641L6.72391 6.13904L6.56928 6.61847L6.97657 6.32248L7.38407 6.61847L7.22696 6.13904L7.63425 5.84306H7.1312L6.97657 5.36508Z" fill="#FEFEFE"/>
<path d="M9.82569 5.36508L9.67107 5.84306H9.16553L9.57531 6.13904L9.41819 6.61847L9.82569 6.32248L10.233 6.61847L10.0784 6.13904L10.4857 5.84306H9.9826L9.82569 5.36508Z" fill="#FEFEFE"/>
<path d="M1.27617 7.78726L1.12175 8.26648H0.616211L1.02599 8.56247L0.868878 9.04148L1.27617 8.7457L1.68367 9.04148L1.52905 8.56247L1.93385 8.26648H1.43328L1.27617 7.78726Z" fill="#FEFEFE"/>
<path d="M4.12745 7.78726L3.97034 8.26648H3.46729L3.87458 8.56247L3.71995 9.04148L4.12745 8.7457L4.53475 9.04148L4.37763 8.56247L4.78513 8.26648H4.28208L4.12745 7.78726Z" fill="#FEFEFE"/>
<path d="M6.97657 7.78726L6.82195 8.26648H6.31641L6.72391 8.56247L6.56928 9.04148L6.97657 8.7457L7.38407 9.04148L7.22696 8.56247L7.63425 8.26648H7.1312L6.97657 7.78726Z" fill="#FEFEFE"/>
<path d="M9.82569 7.78726L9.67107 8.26648H9.16553L9.57531 8.56247L9.41819 9.04148L9.82569 8.7457L10.233 9.04148L10.0784 8.56247L10.4857 8.26648H9.9826L9.82569 7.78726Z" fill="#FEFEFE"/>
<path d="M1.43328 10.6896L1.27617 10.2105L1.12175 10.6896H0.616211L1.02599 10.9855L0.868878 11.4648L1.27617 11.169L1.68367 11.4648L1.52905 10.9855L1.93385 10.6896H1.43328Z" fill="#FEFEFE"/>
<path d="M4.28208 10.6896L4.12745 10.2105L3.97034 10.6896H3.46729L3.87458 10.9855L3.71995 11.4648L4.12745 11.169L4.53475 11.4648L4.37763 10.9855L4.78513 10.6896H4.28208Z" fill="#FEFEFE"/>
<path d="M7.1312 10.6896L6.97657 10.2105L6.82195 10.6896H6.31641L6.72391 10.9855L6.56928 11.4648L6.97657 11.169L7.38407 11.4648L7.22696 10.9855L7.63425 10.6896H7.1312Z" fill="#FEFEFE"/>
<path d="M9.9826 10.6896L9.82569 10.2105L9.67107 10.6896H9.16553L9.57531 10.9855L9.41819 11.4648L9.82569 11.169L10.233 11.4648L10.0784 10.9855L10.4857 10.6896H9.9826Z" fill="#FEFEFE"/>
<path d="M5.55128 1.73032L5.39665 2.20933H4.89111L5.30089 2.50531L5.14378 2.98349L5.55128 2.68751L5.95857 2.98349L5.80395 2.50531L6.21124 2.20933H5.70819L5.55128 1.73032Z" fill="#FEFEFE"/>
<path d="M8.40236 1.73032L8.24524 2.20933H7.74219L8.14948 2.50531L7.99485 2.98349L8.40236 2.68751L8.80965 2.98349L8.65253 2.50531L9.06003 2.20933H8.55698L8.40236 1.73032Z" fill="#FEFEFE"/>
<path d="M2.70167 4.15335L2.54456 4.63153H2.15302C2.14017 4.64915 2.12711 4.66677 2.11426 4.68459L2.4488 4.92856L2.29417 5.40653L2.70146 5.11054L3.10876 5.40653L2.95164 4.92856L3.35894 4.63153H2.85588L2.70126 4.15335H2.70167Z" fill="#FEFEFE"/>
<path d="M5.55128 4.15335L5.39665 4.63153H4.89111L5.30089 4.92856L5.14378 5.40653L5.55128 5.11054L5.95857 5.40653L5.80395 4.92856L6.21124 4.63153H5.70819L5.55128 4.15335Z" fill="#FEFEFE"/>
<path d="M8.40236 4.15335L8.24524 4.63153H7.74219L8.14948 4.92856L7.99485 5.40653L8.40236 5.11054L8.80965 5.40653L8.65253 4.92856L9.06003 4.63153H8.55698L8.40236 4.15335Z" fill="#FEFEFE"/>
<path d="M2.70167 6.5766L2.54456 7.05478H2.0415L2.449 7.35056L2.29438 7.82998L2.70167 7.534L3.10896 7.82998L2.95206 7.35056L3.35935 7.05478H2.8563L2.70167 6.5766Z" fill="#FEFEFE"/>
<path d="M5.55128 6.5766L5.39665 7.05478H4.89111L5.30089 7.35056L5.14378 7.82998L5.55128 7.534L5.95857 7.82998L5.80395 7.35056L6.21124 7.05478H5.70819L5.55128 6.5766Z" fill="#FEFEFE"/>
<path d="M8.40236 6.5766L8.24524 7.05478H7.74219L8.14948 7.35056L7.99485 7.82998L8.40236 7.534L8.80965 7.82998L8.65253 7.35056L9.06003 7.05478H8.55698L8.40236 6.5766Z" fill="#FEFEFE"/>
<path d="M0.0573362 10.1077L0.257563 10.2532L0.102936 9.77401L0.51023 9.47803H0.139209C0.106253 9.68613 0.0786854 9.8961 0.0571289 10.1077H0.0573362Z" fill="#FEFEFE"/>
<path d="M2.8563 9.47803L2.70167 8.99881L2.54456 9.47803H2.0415L2.449 9.77401L2.29438 10.2532L2.70167 9.95724L3.10896 10.2532L2.95206 9.77401L3.35935 9.47803H2.8563Z" fill="#FEFEFE"/>
<path d="M5.70819 9.47803L5.55128 8.99881L5.39665 9.47803H4.89111L5.30089 9.77401L5.14378 10.2532L5.55128 9.95724L5.95857 10.2532L5.80395 9.77401L6.21124 9.47803H5.70819Z" fill="#FEFEFE"/>
<path d="M8.55698 9.47803L8.40236 8.99881L8.24524 9.47803H7.74219L8.14948 9.77401L7.99485 10.2532L8.40236 9.95724L8.80965 10.2532L8.65253 9.77401L9.06003 9.47803H8.55698Z" fill="#FEFEFE"/>
</svg>
