<svg width="100" height="100" viewBox="0 0 100 100" fill="none" xmlns="http://www.w3.org/2000/svg">
<mask id="mask0_911_1403" style="mask-type:luminance" maskUnits="userSpaceOnUse" x="0" y="0" width="100" height="100">
<path d="M0 7.62939e-06H100V100H0V7.62939e-06Z" fill="white"/>
</mask>
<g mask="url(#mask0_911_1403)">
<path fill-rule="evenodd" clip-rule="evenodd" d="M71.8867 77.8942C62.2521 88.8156 45.9828 91.2914 32.8094 82.7192L32.8094 82.7192C20.0589 74.4223 18.7622 58.5873 28.8365 47.8919C32.5644 43.9342 36.6023 41.4547 41.2524 39.1067C42.7608 38.3451 44.3593 37.5863 46.0369 36.7901C49.4601 35.1653 53.2124 33.3843 57.1998 31.1035C58.0435 30.6209 58.3363 29.5457 57.8537 28.702C57.3711 27.8583 56.2959 27.5656 55.4522 28.0481C51.5722 30.2674 48.0538 31.936 44.7023 33.5254C42.9885 34.3382 41.3184 35.1303 39.6659 35.9646C34.8458 38.3985 30.4011 41.0973 26.2743 45.4784L27.508 46.6405L26.2743 45.4785C14.7766 57.6849 16.2019 76.112 30.8896 85.6695C45.5036 95.1791 63.7184 92.4742 74.5263 80.2228L73.2065 79.0585L74.5263 80.2228C86.3774 66.7887 86.985 48.9922 84.7975 34.8751C83.6984 27.7821 81.88 21.5179 80.3388 17.0297C79.5674 14.7835 78.8635 12.9765 78.3504 11.7265C78.0938 11.1014 77.8847 10.6152 77.7386 10.2826C77.6655 10.1163 77.6081 9.9884 77.5684 9.90068C77.5485 9.85681 77.5331 9.823 77.5222 9.79945L77.5095 9.77188L77.5058 9.76393L77.5047 9.76142C77.5043 9.76057 77.504 9.7599 75.9086 10.5031L77.504 9.7599C77.2231 9.15701 76.6264 8.76395 75.9616 8.74396C75.2972 8.72398 74.6783 9.07996 74.3615 9.66415C74.3615 9.66431 74.3614 9.66447 74.3613 9.66462C74.3613 9.66468 74.3612 9.66473 74.3612 9.66479L74.3611 9.66496L74.3609 9.66537M74.3609 9.66537L74.3561 9.67403C74.3511 9.68321 74.3426 9.69861 74.3306 9.72001C74.3066 9.76283 74.2689 9.82964 74.2173 9.91875C74.1142 10.097 73.956 10.3643 73.7429 10.7069C73.3167 11.3924 72.6721 12.378 71.8115 13.5546C70.0879 15.911 67.5113 19.0153 64.1031 22.0086C63.3728 22.65 63.3007 23.762 63.9421 24.4923C64.5835 25.2226 65.6955 25.2947 66.4258 24.6533C70.0723 21.4507 72.8177 18.1411 74.6526 15.6326C74.9976 15.1609 75.3109 14.7169 75.5924 14.3065C76.0051 15.361 76.4912 16.6629 77.0097 18.1729C78.5038 22.5238 80.2602 28.5804 81.3191 35.4141C83.4477 49.1507 82.7042 65.6318 71.8867 77.8942" fill="black"/>
<path d="M22.3757 92.9319C24.011 84.7555 28.342 78.1885 34.6945 72.8844C40.6599 67.9039 47.5469 64.1643 53.7048 59.4368C57.4386 56.5703 60.9083 53.4078 63.8032 49.6811C64.4927 48.7937 64.6521 47.6282 63.8032 46.7606C63.0981 46.0398 61.5661 45.8812 60.883 46.7606C50.7939 59.7482 33.6083 64.6753 24.1048 78.1766C21.2356 82.253 19.3683 86.959 18.3933 91.8341C17.874 94.4294 21.854 95.5401 22.3757 92.9319Z" fill="black"/>
</g>
</svg>
