<svg width="24" height="24" viewBox="0 0 24 24" fill="none" xmlns="http://www.w3.org/2000/svg">
<g clip-path="url(#clip0_1084_4561)">
<path d="M12.0001 0.75C7.2376 0.75 3.1876 3.7125 1.5376 7.875H22.4626C20.8126 3.7125 16.7626 0.75 12.0001 0.75Z" fill="#42ADE2"/>
<path d="M12.6003 6.21249L12.4878 5.79999L12.3378 6.21249H11.9253L12.2628 6.43749L12.1128 6.84999L12.4878 6.58749L12.8253 6.84999L12.6753 6.43749L13.0128 6.21249H12.6003Z" fill="white"/>
<path d="M14.2128 6.21249L14.0628 5.79999L13.9503 6.21249H13.5003L13.8378 6.43749L13.7253 6.84999L14.0628 6.58749L14.4003 6.84999L14.2878 6.43749L14.6253 6.21249H14.2128Z" fill="white"/>
<path d="M15.7878 6.21249L15.6753 5.79999L15.5253 6.21249H15.1128L15.4503 6.43749L15.3378 6.84999L15.6753 6.58749L16.0128 6.84999L15.8628 6.43749L16.2378 6.21249H15.7878Z" fill="white"/>
<path d="M9.37519 6.21249L9.2627 5.79999L9.11269 6.21249H8.7002L9.0377 6.43749L8.92519 6.84999L9.2627 6.58749L9.6002 6.84999L9.48769 6.43749L9.8252 6.21249H9.37519Z" fill="white"/>
<path d="M10.9877 6.21249L10.8752 5.79999L10.7252 6.21249H10.3127L10.6502 6.43749L10.5002 6.84999L10.8752 6.58749L11.2127 6.84999L11.0627 6.43749L11.4002 6.21249H10.9877Z" fill="white"/>
<path d="M12.0001 23.25C16.7626 23.25 20.8126 20.2875 22.4626 16.125H1.5376C3.1876 20.2875 7.2376 23.25 12.0001 23.25Z" fill="#83BF4F"/>
<path d="M23.25 12C23.25 10.8375 23.0625 9.675 22.725 8.625H1.275C0.9375 9.675 0.75 10.8375 0.75 12C0.75 13.1625 0.9375 14.325 1.275 15.375H22.725C23.0625 14.325 23.25 13.1625 23.25 12Z" fill="white"/>
<path d="M22.4624 7.875C22.4999 7.9875 22.5749 8.1375 22.6124 8.25C22.6499 8.3625 22.6874 8.5125 22.7249 8.625" fill="#C94747"/>
<path d="M22.6124 8.25C22.5749 8.1375 22.4999 7.9875 22.4624 7.875H1.5374C1.4999 7.9875 1.4249 8.1375 1.3874 8.25C1.3499 8.3625 1.3124 8.5125 1.2749 8.625H22.7249C22.6874 8.5125 22.6499 8.3625 22.6124 8.25M1.3874 15.75C1.4249 15.8625 1.4999 16.0125 1.5374 16.125H22.4624C22.4999 16.0125 22.5749 15.8625 22.6124 15.75C22.6499 15.6375 22.6874 15.4875 22.7249 15.375H1.2749C1.3124 15.4875 1.3499 15.6375 1.3874 15.75" fill="#C94747"/>
<path d="M7.65 6.4875C6.75 6.4875 6.0375 5.775 6.0375 4.875C6.0375 3.975 6.75 3.2625 7.65 3.2625C7.875 3.2625 8.0625 3.3 8.25 3.375C7.95 3.15 7.5375 3 7.125 3C6.075 3 5.25 3.825 5.25 4.875C5.25 5.925 6.075 6.75 7.125 6.75C7.5375 6.75 7.95 6.6 8.25 6.375C8.0625 6.45 7.875 6.4875 7.65 6.4875ZM10.875 4.35L10.9875 4.7625H11.4375L11.1 4.9875L11.2125 5.4L10.875 5.1375L10.5375 5.4L10.65 4.9875L10.3125 4.7625H10.725L10.875 4.35ZM12.4875 4.35L12.6 4.7625H13.0125L12.675 4.9875L12.825 5.4L12.4875 5.1375L12.1125 5.4L12.2625 4.9875L11.925 4.7625H12.3375L12.4875 4.35ZM14.0625 4.35L14.2125 4.7625H14.625L14.2875 4.9875L14.4 5.4L14.0625 5.1375L13.725 5.4L13.8375 4.9875L13.5 4.7625H13.95L14.0625 4.35ZM15.675 4.35L15.7875 4.7625H16.2375L15.8625 4.9875L16.0125 5.4L15.675 5.1375L15.3375 5.4L15.45 4.9875L15.1125 4.7625H15.525L15.675 4.35ZM12.4875 3L12.6 3.4125H13.0125L12.675 3.6375L12.825 4.05L12.4875 3.7875L12.1125 4.05L12.2625 3.6375L11.925 3.4125H12.3375L12.4875 3ZM14.0625 3L14.2125 3.4125H14.625L14.2875 3.6375L14.4 4.05L14.0625 3.7875L13.725 4.05L13.8375 3.6375L13.5 3.4125H13.95L14.0625 3ZM15.675 3L15.7875 3.4125H16.2375L15.8625 3.6375L16.0125 4.05L15.675 3.7875L15.3375 4.05L15.45 3.6375L15.1125 3.4125H15.525L15.675 3Z" fill="white"/>
</g>
<defs>
<clipPath id="clip0_1084_4561">
<rect width="24" height="24" fill="white"/>
</clipPath>
</defs>
</svg>
